<svg xmlns="http://www.w3.org/2000/svg" width="645.73" height="574.731" viewBox="0 0 645.73 574.731"><defs><style>.a{opacity:0.52;}.b{fill:#f07951;}.c,.k{fill:#4958b0;}.d{fill:#0795ff;}.e{fill:#0795ff;}.f{fill:#94bff0;}.g{fill:#fcfcfc;}.h,.l{fill:#0a5de2;}.i{fill:#afc6f5;}.j{fill:#fff;}.k{opacity:0.4;}.l{opacity:0.2;}.m{fill:#3e3577;}.n{fill:#e0e7f1;}.o{fill:#4b63c1;}.p{fill:#e1efff;}.q{fill:#e2e7f1;}</style></defs><g class="a" transform="translate(-42.282 -67.012)"><g transform="translate(521.309 160.435)"><path class="b" d="M378.93,199.579l-.591-21.547,4.871-.044,2.742,21.59Z" transform="translate(-335.018 -98.915)"/><path class="c" d="M411.1,243.217l6.378,46.335a24.635,24.635,0,0,0,4.316,10.9L447.15,336.17,443.4,355.843h-5.854a1.171,1.171,0,0,1-.7-2.109l1.847-1.385a2.646,2.646,0,0,0,1.051-1.921l.849-11.448-28.426-25.148A28.386,28.386,0,0,1,404.3,302.26L394.088,253.3Z" transform="translate(-326.288 -62.757)"/><path class="b" d="M392.683,211.419c.09.365.182,9.478.182,9.478l7.2,2.187-.182-11.757Z" transform="translate(-327.066 -80.435)"/><path class="b" d="M380.75,208.05l-8.621,3.059-7.337-30.858,3.977-1.791Z" transform="translate(-342.527 -98.654)"/><path class="d" d="M385.969,189.095l3.678,19.559,10.436,27.29L387.9,239.691l-8.287-30.536-1.17-19.894Z" transform="translate(-334.959 -92.759)"/><path class="e" d="M404.5,245.623l-.738,57.758,1.985,52.9H386.953a2.013,2.013,0,0,1-1.986-1.683h0a2.015,2.015,0,0,1,1.676-2.322l11.555-1.809-10.635-41.745a42.3,42.3,0,0,1-1.273-8.634l-2.349-54.716Z" transform="translate(-331.912 -61.561)"/><path class="b" d="M428.572,301.39l-3.4,7.263-3.275-2.9,4.212-7.832Z" transform="translate(-310.87 -32.43)"/><path class="d" d="M400.872,221.2l.482-5.12-8.433-2.229-1.566,2.831Z" transform="translate(-327.803 -79.035)"/><path class="f" d="M371.412,192.607l4.518-1.2c2.664,7.71,6.968,13.691,12.819,19.375l12.38,12.9,12.181,8.227a9.394,9.394,0,0,1,3.811,5.339l10.293,38.179h0a41.1,41.1,0,0,1-33.431,3.822l-1.618-.514-1.156-45.8-13.161-12.864c-5.35-6.688-8.823-17.992-10.394-26.411Z" transform="translate(-340.94 -91.479)"/><circle class="b" cx="5.178" cy="5.178" r="5.178" transform="translate(40.596 74.358)"/><circle class="b" cx="12.079" cy="12.079" r="12.079" transform="translate(60.455 110.676)"/><path class="b" d="M392.514,310.942l8.094-.856.155,4.123-7.317.388Z" transform="translate(-327.16 -25.688)"/><rect class="g" width="64.594" height="64.599" transform="translate(2.907 9.214)"/><path class="d" d="M365.625,193.345l11.706-3.9,1.951,4.39-11.463,3.658Z" transform="translate(-342.066 -92.566)"/><path class="d" d="M377.409,188.345h10.975l-.244,2.927-11.219.244Z" transform="translate(-335.803 -93.175)"/><path class="h" d="M420.874,201.585H350.468v-70.41h70.406Zm-67.5-2.905h64.594v-64.6H353.375v64.6Z" transform="translate(-350.468 -124.866)"/><g transform="translate(15.98)"><path class="i" d="M421.546,127.116l-39.877,40.492-11.831-10.433-9.089,10.315,21.566,19.018,49.017-49.727Z" transform="translate(-360.749 -127.116)"/></g><path class="b" d="M362.464,179.5a5.178,5.178,0,1,0,5.178-5.176A5.178,5.178,0,0,0,362.464,179.5Z" transform="translate(-343.818 -100.945)"/><path class="d" d="M411.243,219.436a13.375,13.375,0,0,0,2.9-3.458,9.928,9.928,0,0,0,.755-5.582,9.829,9.829,0,0,0-1.766-5c-2.134-2.751-6.13-3.482-8.338-6.174-.87-1.062-1.411-2.375-2.366-3.362a5.368,5.368,0,0,0-8.734,5.983,13.316,13.316,0,0,1,4.733.354,10.363,10.363,0,0,1,4.626,1.788,8.19,8.19,0,0,1,2.509,5.757,3.078,3.078,0,0,1-.406,2.156c-.547.706-1.529.853-2.355,1.2a4.672,4.672,0,0,0-2.126,1.8,1.329,1.329,0,0,0-.253,1.079,1.167,1.167,0,0,0,1.478.533c.553-.174,1.015-.564,1.556-.777a2.975,2.975,0,0,1,3.769,2.184,3.649,3.649,0,0,1-2.291,3.943,4.747,4.747,0,0,1-4.643-.892,16.482,16.482,0,0,0-.9,3.724,32.829,32.829,0,0,0,4.988-.275,7.914,7.914,0,0,0,4.051-1.421,8.947,8.947,0,0,0,1.5-1.73A12,12,0,0,1,411.243,219.436Z" transform="translate(-326.76 -89.889)"/></g><g transform="translate(73.288 167.565)"><path class="d" d="M62.23,165.682h0c41.641-48.892,103.182-44.5,137.455,9.813h0C158.044,224.387,96.5,219.994,62.23,165.682Z" transform="translate(-62.23 -131.704)"/><g transform="translate(7.048 34.486)"><rect class="j" width="0.892" height="124.496" transform="matrix(0.073, -0.997, 0.997, 0.073, 0, 0.89)"/></g><g transform="translate(32.105 38.446)"><rect class="j" width="31.937" height="0.892" transform="matrix(0.744, -0.668, 0.668, 0.744, 0, 21.326)"/></g><g transform="translate(43.864 10.384)"><rect class="j" width="0.892" height="42.618" transform="translate(0 0.648) rotate(-46.572)"/></g><g transform="translate(92.624 14.874)"><rect class="j" width="0.892" height="42.358" transform="translate(0 0.663) rotate(-48.021)"/></g><g transform="translate(72.176 42.103)"><rect class="j" width="38.967" height="0.892" transform="translate(0 26.166) rotate(-42.183)"/></g></g><g transform="translate(417.407 243.391)"><path class="d" d="M367.712,183.378h0c2.369,50.33-35.232,80.815-83.986,68.088h0C281.359,201.136,318.96,170.651,367.712,183.378Z" transform="translate(-283.622 -180.487)"/><g transform="translate(3.34 5.869)"><rect class="j" width="97.676" height="0.7" transform="matrix(0.778, -0.629, 0.629, 0.778, 0, 61.399)"/></g><g transform="translate(48.995 5.273)"><rect class="j" width="25.057" height="0.7" transform="matrix(0.087, -0.996, 0.996, 0.087, 0, 24.962)"/></g><g transform="translate(37.834 39.372)"><rect class="j" width="0.7" height="33.437" transform="translate(0 0.7) rotate(-89.688)"/></g><g transform="translate(7.707 63.121)"><rect class="j" width="33.232" height="0.7" transform="translate(0 0.66) rotate(-1.137)"/></g><g transform="translate(21.164 21.898)"><rect class="j" width="30.572" height="0.7" transform="matrix(0.082, -0.997, 0.997, 0.082, 0, 30.469)"/></g></g><g transform="translate(134.565 118.751)"><path class="f" d="M114.243,100.3h0c46.857,13.078,63.411,56.785,36.973,97.622h0C104.359,184.843,87.805,141.138,114.243,100.3Z" transform="translate(-101.653 -100.299)"/><g transform="translate(13.871 5.051)"><rect class="j" width="0.676" height="94.307" transform="translate(0 0.238) rotate(-20.658)"/></g><g transform="translate(4.801 30.276)"><rect class="j" width="0.676" height="24.193" transform="matrix(0.395, -0.919, 0.919, 0.395, 0, 0.621)"/></g><g transform="translate(32.02 22.858)"><rect class="j" width="32.284" height="0.676" transform="matrix(0.319, -0.948, 0.948, 0.319, 0, 30.597)"/></g><g transform="translate(45.267 57.814)"><rect class="j" width="32.086" height="0.676" transform="matrix(0.295, -0.956, 0.956, 0.295, 0, 30.659)"/></g><g transform="translate(11.708 60.527)"><rect class="j" width="0.676" height="29.518" transform="translate(0 0.622) rotate(-67.007)"/></g></g><g transform="translate(394.434 67.012)"><path class="c" d="M335.269,74.845l15.794,32.75,20.208,25.085-5.807,3.716-20.9-22.066L324.018,87Z" transform="translate(-238.255 -62.67)"/><path class="b" d="M330.937,73.7l9.3,2.395-2.234,5.958-10.413-2.264Z" transform="translate(-236.273 -63.303)"/><path class="e" d="M307.612,68.481l-8.134,15.4-6.768,28.786-23.868,46.523,9.673,1.3,21.761-30.067a35.872,35.872,0,0,0,4.874-9.408l11.194-32.7Z" transform="translate(-268.842 -66.198)"/><path class="k" d="M303.354,91.913l-8.058,19.35-7.11-26.816.567-2.411,5.23-9.9,1.158-.325s3.247,8.6,4.032,10.431C299.538,83.088,301.408,87.4,303.354,91.913Z" transform="translate(-258.118 -64.353)"/><path class="g" d="M340.741,110.039,365.7,146.116l-4.944.8-30.285-26-6.842-36.041s-.922-11.1,4.117-10.745,7.843,6.286,7.843,6.286Z" transform="translate(-238.509 -63.074)"/><path class="g" d="M353.572,77.642c-23.461-9.284-49.4-10.63-49.4-10.63L293.884,92.04l56.076,4.425Z" transform="translate(-254.96 -67.012)"/><path class="e" d="M307.315,67.012l-3.448.166a16.443,16.443,0,0,0-15.592,17.81l16.9,29.842a15.524,15.524,0,0,1,2,8.412l-1.815,38.412,9.542-.65,6.154-37.163a25.126,25.126,0,0,0-.612-11.205Z" transform="translate(-258.102 -67.012)"/><path class="b" d="M349.357,116.177a5.6,5.6,0,1,0,5.1-6.309A5.737,5.737,0,0,0,349.357,116.177Z" transform="translate(-224.221 -43.266)"/><path class="b" d="M334.907,87.177a10.879,10.879,0,1,0,2.98-15.455A11.135,11.135,0,0,0,334.907,87.177Z" transform="translate(-233.263 -65.323)"/><path class="b" d="M345.218,123.691a5.6,5.6,0,1,0,5.1-6.308A5.736,5.736,0,0,0,345.218,123.691Z" transform="translate(-226.515 -39.099)"/><path class="c" d="M299.707,127.127l-.479,4.394,20.146-.28s.748-2.743,0-2.994c-.732-.244-15.113-1.5-15.113-1.5Z" transform="translate(-251.998 -33.897)"/><path class="c" d="M269.415,127.127l-.479,4.394,20.146-.28s.748-2.743,0-2.994c-.732-.244-15.113-1.5-15.113-1.5Z" transform="translate(-268.79 -33.897)"/><path class="d" d="M353.679,91.3a3.932,3.932,0,0,0,3-2.178,8.751,8.751,0,0,0,.841-3.74,5.668,5.668,0,0,0-.169-1.977c-.368-1.164-1.352-2.019-1.935-3.092a10.5,10.5,0,0,1-.72-1.9,25.326,25.326,0,0,0-2.935-6.667,6.878,6.878,0,0,0-1.461-1.66,8.885,8.885,0,0,0-2.846-1.276,4.759,4.759,0,0,0-4.972.353l-6.22,3.577a4.454,4.454,0,0,0,3.258.288A5.923,5.923,0,0,1,342.823,73a2.707,2.707,0,0,1,.325,4.843,14.371,14.371,0,0,1,4.243.2,5.593,5.593,0,0,1,3.476,2.283,7.635,7.635,0,0,1,.928,3.485,10.246,10.246,0,0,1-.051,2.776c-.157.818-.591,1.561-.737,2.377C350.752,90.385,352.395,91.4,353.679,91.3Z" transform="translate(-231.47 -66.297)"/></g><ellipse class="l" cx="74.143" cy="12.155" rx="74.143" ry="12.155" transform="translate(539.727 600.216)"/><g transform="translate(150.078 120.436)"><rect class="c" width="315.366" height="420.01" transform="translate(0 44.11)"/><rect class="g" width="391.34" height="286.696" transform="translate(301.031 58.445) rotate(90)"/><path class="m" d="M160.841,137.449A18.277,18.277,0,0,0,179.108,155.4H304.969a18.277,18.277,0,0,0,18.267-17.956Z" transform="translate(-84.356 -81.39)"/><path class="i" d="M319.341,134.144a12.807,12.807,0,0,0-12.478-9.921H264.882a22.84,22.84,0,1,0-45.679,0H177.222a12.806,12.806,0,0,0-12.477,9.921l-3.434,14.846a18.27,18.27,0,0,0,17.8,22.386H304.973a18.269,18.269,0,0,0,17.8-22.384Zm-75.146.85a10.985,10.985,0,1,1,8.622-8.625A10.994,10.994,0,0,1,244.2,134.994Z" transform="translate(-84.36 -101.383)"/><g transform="translate(34.398 106.174)"><path class="h" d="M179.353,217.909H133.764v-45.59h45.589Zm-43.707-1.882h41.824V174.2H135.646v41.827Z" transform="translate(-133.764 -168.234)"/><g transform="translate(10.348)"><path class="i" d="M179.787,169.691l-25.82,26.218-7.661-6.755-5.885,6.679,13.964,12.314,31.738-32.2Z" transform="translate(-140.421 -169.691)"/></g><g transform="translate(68.779 10.446)"><rect class="m" width="177.79" height="2.867"/></g><g transform="translate(68.779 21.928)"><rect class="m" width="177.79" height="2.867"/></g><g transform="translate(68.779 33.412)"><rect class="m" width="95.824" height="2.867"/></g><g transform="translate(0 75.974)"><path class="h" d="M179.353,266.788H133.764V221.2h45.589Zm-43.707-1.882h41.824V223.079H135.646v41.827Z" transform="translate(-133.764 -217.113)"/><g transform="translate(10.348)"><path class="i" d="M179.787,218.57l-25.82,26.218-7.661-6.755-5.885,6.679,13.964,12.314,31.738-32.2Z" transform="translate(-140.421 -218.57)"/></g><g transform="translate(68.779 10.446)"><rect class="m" width="177.79" height="2.867"/></g><g transform="translate(68.779 21.928)"><rect class="m" width="177.79" height="2.867"/></g><g transform="translate(68.779 33.412)"><rect class="m" width="95.824" height="2.867"/></g></g><g transform="translate(0 156.034)"><path class="h" d="M179.353,315.666H133.764V270.077h45.589Zm-43.707-1.881h41.824V271.958H135.646v41.827Z" transform="translate(-133.764 -270.077)"/><g transform="translate(68.779 6.36)"><rect class="m" width="177.79" height="2.867"/></g><g transform="translate(68.779 17.843)"><rect class="m" width="177.79" height="2.867"/></g><g transform="translate(68.779 29.326)"><rect class="m" width="95.824" height="2.867"/></g></g><g transform="translate(0 232.009)"><path class="h" d="M179.353,364.545H133.764V318.956h45.589Zm-43.707-1.881h41.824V320.837H135.646v41.827Z" transform="translate(-133.764 -318.956)"/><g transform="translate(68.779 6.36)"><rect class="m" width="177.79" height="2.867"/></g><g transform="translate(68.779 17.843)"><rect class="m" width="177.79" height="2.867"/></g><g transform="translate(68.779 29.326)"><rect class="m" width="95.824" height="2.867"/></g></g></g></g><g transform="translate(553.269 453.022)"><g transform="translate(33.435 2.216)"><g transform="translate(46.581)"><rect class="c" width="1.91" height="154.725" transform="translate(0 0.313) rotate(-9.437)"/></g><rect class="c" width="1.91" height="154.725" transform="translate(0 0.313) rotate(-9.438)"/><g transform="translate(6.349 31.64)"><rect class="c" width="46.995" height="1.911"/></g><g transform="translate(9.676 52.019)"><rect class="c" width="46.997" height="1.911"/></g><g transform="translate(13.005 72.397)"><rect class="c" width="46.995" height="1.911"/></g><g transform="translate(16.331 92.775)"><rect class="c" width="46.995" height="1.911"/></g><g transform="translate(19.658 113.155)"><rect class="c" width="46.995" height="1.91"/></g><g transform="translate(22.985 133.533)"><rect class="c" width="46.997" height="1.91"/></g></g><g transform="translate(0 2.217)"><rect class="d" width="154.725" height="1.91" transform="translate(0 152.63) rotate(-80.56)"/><g transform="translate(46.578 0)"><rect class="d" width="154.725" height="1.91" transform="translate(0 152.629) rotate(-80.558)"/></g><g transform="translate(20.493 31.639)"><rect class="d" width="46.995" height="1.911"/></g><g transform="translate(17.166 52.019)"><rect class="d" width="46.995" height="1.911"/></g><g transform="translate(13.839 72.397)"><rect class="d" width="46.996" height="1.911"/></g><g transform="translate(10.512 92.775)"><rect class="d" width="46.996" height="1.911"/></g><g transform="translate(7.184 113.155)"><rect class="d" width="46.995" height="1.91"/></g><g transform="translate(3.857 133.532)"><rect class="d" width="46.995" height="1.91"/></g></g><g transform="translate(22.515 0)"><rect class="d" width="65.669" height="5.732"/></g></g><g transform="translate(106.953 581.332)"><rect class="c" width="449.311" height="3.109"/></g><g transform="translate(473.911 325.942)"><g transform="translate(0 73.617)"><path class="b" d="M342.559,429.664l.082,4.665-4.712.248-.992-5.208Z" transform="translate(-310.571 -198.689)"/><path class="c" d="M342.4,433.237a1.317,1.317,0,0,0-1.728-1.626,3.356,3.356,0,0,0-1.169,1.038A10.975,10.975,0,0,1,336.137,435c-1.247.631-2.628,1.292-3.211,2.562-.351.766.468,1.631,1.27,1.887,2.963.953,6.022-1.312,8.8-2.708a4.738,4.738,0,0,0,1.228-.785c1.006-.981.951-2.588.8-3.984-.019-.168-.3-.21-.468-.171a1.082,1.082,0,0,0-.427.266C343.6,432.517,342.917,432.786,342.4,433.237Z" transform="translate(-312.841 -197.493)"/><path class="b" d="M346.726,429.563l-.082,4.665,4.712.248.992-5.208Z" transform="translate(-305.19 -198.745)"/><path class="c" d="M349.23,433.134a1.316,1.316,0,0,1,1.728-1.624,3.35,3.35,0,0,1,1.167,1.038,11,11,0,0,0,3.362,2.352c1.248.631,2.628,1.292,3.211,2.562.351.766-.466,1.629-1.27,1.887-2.963.953-6.02-1.313-8.8-2.709a4.731,4.731,0,0,1-1.228-.783c-1.006-.981-.95-2.588-.8-3.984.019-.169.3-.211.469-.171a1.1,1.1,0,0,1,.427.264C348.022,432.416,348.707,432.685,349.23,433.134Z" transform="translate(-305.26 -197.549)"/><path class="n" d="M335.771,409.535l-5.742-59.07-6.154-17.634a52.446,52.446,0,0,1-2.823-20.629l1.592-24.908,5.743-.821,4.665,27.664,8.462,32.226L362.024,348l10.556-24.532a54.448,54.448,0,0,0,2.358-6.628l8.417-29.551,5.743.821-2,30.9a24.432,24.432,0,0,1-2.111,8.467l-11.476,25.44.821,54.968Z" transform="translate(-319.435 -277.902)"/><path class="e" d="M369.341,409.681l-5.6,59.308h-7.756l-.556-55.969-3.278-42.609-5.6.238-1.569,40.438,1.541,57.9h-8.23l-7.63-58.751-.881-51.81,39.514.515Z" transform="translate(-314.537 -238.015)"/><path class="b" d="M331.165,286.555a5.6,5.6,0,1,1-5.6-5.6A5.6,5.6,0,0,1,331.165,286.555Z" transform="translate(-319.974 -280.959)"/><path class="b" d="M371.389,287.106a5.732,5.732,0,1,1-5.731-5.732A5.732,5.732,0,0,1,371.389,287.106Z" transform="translate(-297.827 -280.729)"/><path class="b" d="M356.518,318.532a11.275,11.275,0,1,1-11.275-11.275A11.276,11.276,0,0,1,356.518,318.532Z" transform="translate(-312.216 -266.381)"/><path class="o" d="M356.069,311.792a36.332,36.332,0,0,0-7.189-5.2,16.531,16.531,0,0,0-8.552-2.036,5.791,5.791,0,0,0-3.558,1.233,5.292,5.292,0,0,0-1.3,1.963c-.721,1.746-.825,3.931.4,5.366a11.023,11.023,0,0,1,5.751-2.447,6.4,6.4,0,0,1,3.233.407,7.2,7.2,0,0,1,3.008,2.973,17.42,17.42,0,0,1,2.3,6.036,4.353,4.353,0,0,0,.379,1.357,1.268,1.268,0,0,0,1.132.713c.34-.028.647-.244.987-.264a1.209,1.209,0,0,1,1.125,1.1,3.511,3.511,0,0,1-.32,1.676q-.629,1.7-1.256,3.406a12.939,12.939,0,0,0,4.8-7.346C357.691,317.814,358.3,313.771,356.069,311.792Z" transform="translate(-311.677 -267.894)"/></g><g transform="translate(2.325 0)"><rect class="g" width="64.594" height="64.599" transform="translate(2.907 9.214)"/><path class="h" d="M391.877,308.066H321.47v-70.41h70.407Zm-67.5-2.907H388.97v-64.6H324.377v64.6Z" transform="translate(-321.47 -231.347)"/><g transform="translate(15.981)"><path class="i" d="M392.549,233.6l-39.877,40.492L340.84,263.656l-9.089,10.315,21.566,19.018,49.017-49.727Z" transform="translate(-331.751 -233.597)"/></g></g><g transform="translate(0 73.617)"><path class="n" d="M335.771,409.535l-5.742-59.07-6.154-17.634a52.446,52.446,0,0,1-2.823-20.629l1.592-24.908,5.743-.821,4.665,27.664,8.462,32.226L362.024,348l10.556-24.532a54.448,54.448,0,0,0,2.358-6.628l8.417-29.551,5.743.821-2,30.9a24.432,24.432,0,0,1-2.111,8.467l-11.476,25.44.821,54.968Z" transform="translate(-319.435 -277.902)"/><path class="b" d="M331.165,286.555a5.6,5.6,0,1,1-5.6-5.6A5.6,5.6,0,0,1,331.165,286.555Z" transform="translate(-319.974 -280.959)"/><path class="b" d="M371.389,287.106a5.732,5.732,0,1,1-5.731-5.732A5.732,5.732,0,0,1,371.389,287.106Z" transform="translate(-297.827 -280.729)"/><path class="b" d="M356.518,318.532a11.275,11.275,0,1,1-11.275-11.275A11.276,11.276,0,0,1,356.518,318.532Z" transform="translate(-312.216 -266.381)"/><path class="o" d="M356.069,311.792a36.332,36.332,0,0,0-7.189-5.2,16.531,16.531,0,0,0-8.552-2.036,5.791,5.791,0,0,0-3.558,1.233,5.292,5.292,0,0,0-1.3,1.963c-.721,1.746-.825,3.931.4,5.366a11.023,11.023,0,0,1,5.751-2.447,6.4,6.4,0,0,1,3.233.407,7.2,7.2,0,0,1,3.008,2.973,17.42,17.42,0,0,1,2.3,6.036,4.353,4.353,0,0,0,.379,1.357,1.268,1.268,0,0,0,1.132.713c.34-.028.647-.244.987-.264a1.209,1.209,0,0,1,1.125,1.1,3.511,3.511,0,0,1-.32,1.676q-.629,1.7-1.256,3.406a12.939,12.939,0,0,0,4.8-7.346C357.691,317.814,358.3,313.771,356.069,311.792Z" transform="translate(-311.677 -267.894)"/><path class="b" d="M338.44,319.124v11.9a3.315,3.315,0,0,0,6.626.148l.443-12.861Z" transform="translate(-309.737 -260.253)"/><path class="p" d="M376.864,318.484l2-30.9-.989-.141c-2.361,4.223-3.185,12.772-3.928,14.9-2.865,8.194-6.791,16.094-8.229,24.723-.689,4.124-.8,8.4-2.356,12.287-1.433,3.58-4,6.587-5.7,10.046-1.735,3.521-2.167,27.588-3.158,30.083-2.007,5.042-13.366,9.135-14.539,12.388-1.854,5.136,1.152,11.107,5.79,13.992a17.755,17.755,0,0,0,4.988,2.073l13.358-.569-.821-54.968,11.476-25.44A24.432,24.432,0,0,0,376.864,318.484Z" transform="translate(-309.202 -277.367)"/><path class="b" d="M342.559,429.664l.082,4.665-4.712.248-.992-5.208Z" transform="translate(-310.571 -198.689)"/><path class="c" d="M342.4,433.237a1.317,1.317,0,0,0-1.728-1.626,3.356,3.356,0,0,0-1.169,1.038A10.975,10.975,0,0,1,336.137,435c-1.247.631-2.628,1.292-3.211,2.562-.351.766.468,1.631,1.27,1.887,2.963.953,6.022-1.312,8.8-2.708a4.738,4.738,0,0,0,1.228-.785c1.006-.981.951-2.588.8-3.984-.019-.168-.3-.21-.468-.171a1.082,1.082,0,0,0-.427.266C343.6,432.517,342.917,432.786,342.4,433.237Z" transform="translate(-312.841 -197.493)"/><path class="b" d="M346.726,429.563l-.082,4.665,4.712.248.992-5.208Z" transform="translate(-305.19 -198.745)"/><path class="c" d="M349.23,433.134a1.316,1.316,0,0,1,1.728-1.624,3.35,3.35,0,0,1,1.167,1.038,11,11,0,0,0,3.362,2.352c1.248.631,2.628,1.292,3.211,2.562.351.766-.466,1.629-1.27,1.887-2.963.953-6.02-1.313-8.8-2.709a4.731,4.731,0,0,1-1.228-.783c-1.006-.981-.95-2.588-.8-3.984.019-.169.3-.211.469-.171a1.1,1.1,0,0,1,.427.264C348.022,432.416,348.707,432.685,349.23,433.134Z" transform="translate(-305.26 -197.549)"/><path class="e" d="M369.341,409.681l-5.6,59.308h-7.756l-.556-55.969-3.278-42.609-5.6.238-1.569,40.438,1.541,57.9h-8.23l-7.63-58.751-.881-51.81,39.514.515Z" transform="translate(-314.537 -238.015)"/></g></g><g transform="translate(51.966 378.098)"><path class="d" d="M65.595,291.636a6.477,6.477,0,0,0-5.3,1.449c-2.185,1.679-3.69,4.546-2.972,7.207a7.521,7.521,0,0,0,3.253,4.093,7.2,7.2,0,0,0,2.594,1.149c2.475.471,4.924-.964,6.755-2.694,1.438-1.358,4.856-4.424,2.761-6.367-1.021-.947-2.271-1.727-3.36-2.6A10.071,10.071,0,0,0,65.595,291.636Z" transform="translate(-43.728 -253.652)"/><path class="q" d="M63.692,398.151l2.322-32.083-3.589-23.615L50.238,272.861l5.886-.841L69.578,333.4,90.6,335.086l21.863-62.224,5.886.841-15.977,66.429-5.607,25.392.66,30.946Z" transform="translate(-47.555 -264.453)"/><path class="b" d="M62.889,302.884l-6.965,2.442-5.685-32.464,5.886-.841Z" transform="translate(-47.555 -264.453)"/><path class="b" d="M84.463,298.254l8.162,3.22L99.376,273.4l-5.886-.841Z" transform="translate(-28.583 -264.153)"/><path class="b" d="M66.912,311.85l6.035,10.716,3.039-9.99Z" transform="translate(-38.312 -242.374)"/><path class="b" d="M99.351,272.2a5.045,5.045,0,1,1-5.045-5.045A5.046,5.046,0,0,1,99.351,272.2Z" transform="translate(-25.924 -267.152)"/><path class="b" d="M58.6,272.8a5.045,5.045,0,1,1-5.045-5.045A5.045,5.045,0,0,1,58.6,272.8Z" transform="translate(-48.512 -266.816)"/><path class="b" d="M84.773,305.874a10.986,10.986,0,1,1-10.986-10.986A10.986,10.986,0,0,1,84.773,305.874Z" transform="translate(-40.591 -251.777)"/><path class="b" d="M67.777,314.791v-7.6h5.958v8.788l-2.83,2.085Z" transform="translate(-37.833 -244.954)"/><path class="d" d="M75.465,294.553c.1,0,.2-.008.3-.016a14.647,14.647,0,0,0,3.614-1.077c1.749-.611,4.787-1.209,5.123,1.488.232,1.856-1.781,2.714-3.071,3.528a11.06,11.06,0,0,0-4.267-.549,13.735,13.735,0,0,0-5.7.928,5.846,5.846,0,0,0-3.544,4.3,9.887,9.887,0,0,0,.187,2.784,6.766,6.766,0,0,1,0,2.782c-.244.9-1.184,4.518-2.1,4.7a2.436,2.436,0,0,1-2-.608,4.809,4.809,0,0,1-1.209-1.772,16.572,16.572,0,0,1-1.39-7.291,10.051,10.051,0,0,1,11.334-9.491A16.066,16.066,0,0,0,75.465,294.553Z" transform="translate(-41.369 -252.856)"/><path class="b" d="M71.529,303.924a3.92,3.92,0,1,1-3.92-3.92A3.92,3.92,0,0,1,71.529,303.924Z" transform="translate(-40.099 -248.941)"/><path class="p" d="M80.784,322.56c-4.041,1.5-8.6,2.451-12.615.875a42.919,42.919,0,0,0-4.074-1.764,4.325,4.325,0,0,0-4.133,1.438,5.764,5.764,0,0,0-.85,2.442L61.1,338.6l-.311,4.293c4.2,2.126,9.185,2.3,13.941,2.383l9.443.163a8.152,8.152,0,0,0,4.225-.684,7.789,7.789,0,0,0,2.886-3.937c.21-.485.395-.981.594-1.47l-.026-1.292,3.6-16.307A14.722,14.722,0,0,1,80.784,322.56Z" transform="translate(-42.636 -236.985)"/><path class="d" d="M54.041,406.351a18.742,18.742,0,0,0,.218,2.551q.513,3.912,1.024,7.828a6.343,6.343,0,0,0,.967,3.087,2.176,2.176,0,0,0,2.872.664,2.976,2.976,0,0,0,.79-1.086,26.273,26.273,0,0,0,2.8-12.192c-.048-2.969-1.029-5.977-4.285-6.681C55.149,399.812,54.058,403.616,54.041,406.351Z" transform="translate(-45.447 -193.268)"/><path class="b" d="M62.215,339.062l32.159-1.5,24.739,110.808,10.106-6.07-12.6,16.052L83.677,367.012l.5,41.426L61.84,438.033l-1.425,10.68-.314,2.4A2.181,2.181,0,0,1,57.681,453h0a2.181,2.181,0,0,1-1.92-2.069L55.119,436.5,72.408,408.39l-12.2-46.54Z" transform="translate(-44.849 -228.122)"/><path class="d" d="M62.135,332.72s8.179,3.326,15.6,2.83a62.263,62.263,0,0,0,15.149-3.374s4.483,20.7,7.947,34.555a231.228,231.228,0,0,1,4.949,28.541S88.3,406.654,67.674,400.88c0,0-11.218-28.539-10.394-39.592S62.135,332.72,62.135,332.72Z" transform="translate(-43.675 -231.106)"/><path class="d" d="M108.674,407.214c.518-.928.979-2.237.166-2.921a1.777,1.777,0,0,0-1.823-.092c-1.725.749-2.6,2.658-3.3,4.407-3.811,9.592-5.948,5.977-9.5,7.915-2.443,1.331-1.46,2.492.766,4.633C98.827,424.853,107.093,410.046,108.674,407.214Z" transform="translate(-23.967 -191.293)"/></g><path class="l" d="M144.121,418.648c0,4.61-22.8,8.347-50.92,8.347s-50.919-3.737-50.919-8.347S65.08,410.3,93.2,410.3,144.121,414.038,144.121,418.648Z" transform="translate(0 190.3)"/><g transform="translate(51.372 307.167)"><path class="h" d="M118.537,295.988H48.13V225.576h70.407Zm-67.5-2.907h64.594v-64.6H51.038v64.6Z" transform="translate(-48.13 -219.268)"/><g transform="translate(15.981)"><path class="i" d="M119.209,221.518,79.332,262.01,67.5,251.577l-9.089,10.315L79.977,280.91l49.017-49.727Z" transform="translate(-58.412 -221.518)"/></g></g></g></svg>