<?xml version="1.0" standalone="no"?>
<!DOCTYPE svg PUBLIC "-//W3C//DTD SVG 20010904//EN"
 "http://www.w3.org/TR/2001/REC-SVG-20010904/DTD/svg10.dtd">
<svg version="1.0" xmlns="http://www.w3.org/2000/svg"
 width="562.000000pt" height="561.000000pt" viewBox="0 0 562.000000 561.000000"
 preserveAspectRatio="xMidYMid meet">

<g transform="translate(0.000000,561.000000) scale(0.100000,-0.100000)"
fill="#000000" stroke="none">
<path d="M3175 3813 c-73 -16 -100 -46 -65 -70 11 -8 20 -20 20 -27 0 -8 6
-19 14 -25 10 -9 15 -8 20 4 11 29 26 15 26 -25 0 -30 5 -42 21 -50 24 -14 21
-16 48 37 26 52 28 114 4 136 -21 18 -59 27 -88 20z"/>
<path d="M2468 3612 c-123 -2 -138 -4 -138 -20 0 -9 14 -68 32 -129 l33 -113
150 0 150 0 35 -57 c44 -70 101 -133 122 -133 9 0 62 41 118 91 55 50 102 90
104 88 2 -2 11 -53 20 -114 22 -140 24 -145 45 -145 10 0 24 -7 32 -16 7 -8
31 -25 53 -36 23 -11 42 -22 44 -23 2 -2 -4 -17 -12 -33 -25 -48 -53 -62 -123
-62 -34 0 -65 -4 -68 -10 -4 -7 56 -10 174 -10 175 0 180 1 195 22 23 33 22
152 -2 176 -13 13 -21 55 -35 182 -11 91 -25 178 -32 195 -8 19 -32 41 -64 60
-33 19 -51 36 -51 48 0 15 -5 18 -25 13 -50 -13 -75 -26 -75 -41 0 -8 -19 -24
-42 -36 -24 -12 -94 -71 -155 -132 -62 -61 -113 -106 -113 -99 0 6 -12 24 -27
39 -28 28 -28 28 -6 31 32 5 17 32 -17 32 -15 0 -33 7 -40 15 -8 9 -16 12 -19
6 -14 -22 -45 -16 -59 12 -11 23 -11 32 2 59 15 29 15 33 -4 62 -53 83 -50 81
-202 78z"/>
<path d="M2678 3163 c17 -2 47 -2 65 0 17 2 3 4 -33 4 -36 0 -50 -2 -32 -4z"/>
<path d="M1785 2930 c-11 -18 6 -30 44 -30 l39 0 37 -152 c21 -84 43 -159 50
-167 11 -11 10 -20 -2 -49 -43 -104 29 -229 151 -263 144 -39 289 128 232 266
-9 20 -11 37 -6 40 9 6 25 55 68 213 l20 72 -222 0 -223 0 5 -25 4 -25 188 0
188 0 -26 -97 c-14 -54 -27 -100 -28 -102 -2 -2 -31 11 -65 28 -34 17 -77 31
-94 31 -17 0 -60 -14 -94 -31 -34 -17 -63 -30 -65 -28 -2 2 -20 71 -40 154
-21 82 -42 155 -48 162 -12 15 -104 18 -113 3z m407 -437 c-2 -23 1 -51 7 -62
9 -16 8 -22 -8 -31 -28 -14 -74 -13 -96 4 -16 12 -17 16 -6 30 9 10 12 30 8
55 -3 22 -2 42 1 46 4 3 27 5 51 3 l46 -3 -3 -42z"/>
<path d="M1530 2840 l-25 -6 -3 -268 c-2 -190 1 -273 9 -282 16 -19 74 -18 93
2 12 12 16 38 16 113 0 110 13 134 70 134 57 0 70 -24 70 -134 0 -111 9 -129
64 -129 53 0 58 15 54 148 -3 110 -5 122 -30 160 -30 45 -64 67 -118 77 -28 5
-43 1 -73 -19 l-37 -25 0 97 c0 64 -4 104 -12 114 -16 19 -45 26 -78 18z"/>
<path d="M1137 2799 c-71 -37 -101 -119 -72 -195 21 -54 51 -76 150 -106 83
-25 95 -33 95 -64 0 -63 -83 -74 -147 -19 -23 19 -48 35 -56 35 -8 0 -27 -14
-41 -31 -26 -31 -26 -31 -8 -63 40 -68 133 -106 221 -88 96 20 155 85 155 172
0 89 -45 132 -168 160 -71 16 -86 26 -86 60 0 52 55 65 120 28 45 -26 64 -20
90 25 20 35 8 55 -50 85 -58 29 -149 30 -203 1z"/>
<path d="M3052 2798 c-9 -9 -12 -80 -12 -260 0 -234 1 -248 19 -258 26 -14 74
-13 89 2 8 8 12 46 12 105 l0 93 94 0 c104 0 126 10 126 56 0 58 -12 64 -120
64 l-100 0 0 45 0 45 131 0 c72 0 139 5 150 10 13 7 19 21 19 45 0 67 8 65
-204 65 -136 0 -196 -4 -204 -12z"/>
<path d="M3996 2655 c-47 -16 -103 -69 -122 -112 -16 -37 -18 -110 -4 -147 19
-50 80 -105 133 -121 80 -24 144 -6 204 57 39 41 53 76 53 134 0 61 -19 102
-68 146 -61 55 -124 69 -196 43z m117 -128 c10 -6 20 -28 23 -47 12 -76 -76
-121 -133 -68 -29 27 -31 80 -3 108 23 23 86 27 113 7z"/>
<path d="M2428 2649 c-16 -9 -18 -33 -18 -267 0 -187 3 -261 12 -270 7 -7 29
-12 50 -12 50 0 58 18 58 124 0 47 2 86 3 86 2 0 19 -7 36 -16 66 -33 154 10
199 96 28 55 28 101 1 157 -44 91 -132 133 -201 96 -36 -20 -37 -20 -54 -2
-19 21 -59 24 -86 8z m216 -130 c32 -25 34 -64 4 -96 -42 -45 -118 -17 -118
44 0 33 36 73 65 73 12 0 34 -9 49 -21z"/>
<path d="M3536 2644 c-13 -13 -16 -44 -16 -179 0 -182 4 -195 64 -195 50 0 56
13 56 120 0 57 5 105 13 120 11 22 19 25 71 25 50 0 61 3 73 23 21 30 19 73
-3 89 -28 20 -87 16 -118 -8 l-27 -22 -15 22 c-18 26 -75 29 -98 5z"/>
<path d="M4336 2644 c-13 -13 -16 -44 -16 -179 0 -135 3 -166 16 -179 18 -19
77 -21 92 -3 5 6 12 61 14 120 3 59 10 113 16 119 14 14 60 14 75 -1 7 -7 13
-55 15 -119 2 -59 8 -113 14 -119 15 -18 74 -16 92 3 12 12 16 38 16 115 0 86
3 102 20 119 24 24 29 24 58 4 20 -14 22 -23 22 -119 0 -120 9 -138 69 -133
54 5 63 30 57 159 -3 58 -10 119 -16 135 -25 65 -94 107 -150 89 -12 -4 -36
-20 -55 -36 -26 -23 -34 -26 -39 -14 -8 22 -67 55 -98 55 -14 0 -40 -11 -56
-25 -34 -29 -42 -31 -42 -10 0 33 -76 47 -104 19z"/>
<path d="M1495 2096 c-106 -49 -168 -163 -146 -268 15 -68 38 -102 109 -165
33 -29 77 -79 99 -111 l39 -58 30 49 c16 27 60 78 97 112 86 79 117 137 117
219 0 38 -8 77 -19 102 -56 122 -204 177 -326 120z m166 -158 c27 3 29 1 29
-31 0 -19 7 -40 15 -47 8 -7 15 -16 15 -21 0 -5 -7 -9 -15 -9 -11 0 -15 -12
-15 -45 l0 -45 -95 0 -95 0 0 45 c0 33 -4 45 -15 45 -25 0 -18 12 47 77 59 60
63 62 81 45 11 -10 31 -15 48 -14z"/>
<path d="M1998 2069 c-16 -9 -18 -32 -18 -257 0 -180 3 -251 12 -260 7 -7 28
-12 48 -12 54 0 60 12 60 122 l0 98 105 0 105 0 0 -84 c0 -47 4 -96 10 -110 8
-23 15 -26 54 -26 35 0 48 5 56 19 6 12 10 112 10 255 0 261 -1 266 -65 266
-52 0 -65 -27 -65 -132 l0 -88 -105 0 -105 0 0 100 c0 88 -2 100 -19 110 -25
13 -61 12 -83 -1z"/>
<path d="M2630 1919 c-112 -45 -162 -175 -107 -280 77 -146 283 -144 358 4 32
61 24 153 -17 204 -56 70 -159 102 -234 72z m125 -134 c30 -29 33 -74 6 -106
-27 -33 -95 -33 -122 0 -42 51 -5 131 61 131 19 0 40 -9 55 -25z"/>
<path d="M3715 1912 c-52 -24 -102 -82 -111 -127 -19 -101 21 -197 97 -236 56
-28 205 -25 238 5 26 24 27 47 2 77 -17 21 -21 22 -58 11 -22 -7 -52 -12 -67
-12 -35 0 -86 27 -86 45 0 12 19 15 100 15 94 0 103 2 125 25 47 46 25 135
-48 189 -39 29 -138 33 -192 8z m138 -113 c21 -34 2 -49 -63 -49 -67 0 -77 13
-39 51 24 24 86 23 102 -2z"/>
<path d="M2970 1901 c-5 -11 -10 -86 -10 -171 0 -85 5 -160 10 -171 8 -14 21
-19 55 -19 58 0 65 14 65 137 0 105 7 123 46 123 41 0 54 -35 54 -140 0 -108
6 -120 60 -120 54 0 60 12 60 116 0 115 9 144 48 144 46 0 52 -15 52 -123 0
-123 7 -137 65 -137 35 0 47 4 56 22 16 30 6 232 -14 279 -38 91 -153 106
-214 29 -11 -13 -15 -13 -30 6 -42 51 -118 60 -159 19 -14 -14 -26 -25 -28
-25 -2 0 -7 11 -10 25 -6 22 -12 25 -51 25 -34 0 -47 -5 -55 -19z"/>
</g>
</svg>
